<svg width="39" height="61" viewBox="0 0 39 61" fill="none" xmlns="http://www.w3.org/2000/svg">
<g clip-path="url(#clip0_95_188)">
<path d="M27.6748 51.8029C27.6748 51.8029 30.7203 53.6123 30.7203 54.5553C30.7203 55.4983 33.7659 56.6579 33.7659 56.6579C33.7659 56.6579 32.8611 55.3454 32.9886 53.8162C33.116 52.2871 31.3702 51.1785 31.3702 51.1785" stroke="#E3F2C4" style="stroke:#E3F2C4;stroke:color(display-p3 0.8902 0.9490 0.7686);stroke-opacity:1;" stroke-width="1.27428" stroke-miterlimit="10"/>
<path d="M28.3242 47.3556C28.3242 47.3556 24.1955 44.6923 25.3424 43.9532C26.4892 43.2142 26.1324 43.0358 26.1324 43.0358" stroke="#E3F2C4" style="stroke:#E3F2C4;stroke:color(display-p3 0.8902 0.9490 0.7686);stroke-opacity:1;" stroke-width="1.27428" stroke-miterlimit="10"/>
<path d="M4.86507 4.60323C4.86507 4.60323 4.08775 1.77432 12.7784 2.39872" stroke="#E3F2C4" style="stroke:#E3F2C4;stroke:color(display-p3 0.8902 0.9490 0.7686);stroke-opacity:1;" stroke-width="1.27428" stroke-miterlimit="10"/>
<path d="M4.49448 8.974C-2.24649 17.2186 3.32213 29.6301 3.32213 29.6301L5.08065 30.8534L2.96533 34.4214L5.89619 39.3784C5.89619 39.3784 7.68018 38.3335 8.76333 38.7667C11.2864 39.7734 10.0249 40.7419 10.0249 40.7419C10.0249 40.7419 3.34762 42.2328 2.74871 46.7438C2.14979 51.2547 4.92773 53.0132 8.3683 50.9362C11.8089 48.8591 13.1723 52.8603 11.1335 54.9247C9.09464 56.989 10.5346 59.2317 10.5346 59.2317C10.5346 59.2317 11.2864 56.1607 12.5607 55.5618C13.835 54.9629 15.9758 50.8852 14.6633 49.9804C13.3507 49.0757 11.5413 46.285 9.06915 47.6612C6.59704 49.0375 7.55276 44.2334 9.7063 43.9913C11.8598 43.7492 13.9497 43.0229 14.4339 41.7358C14.4339 41.7358 16.2561 43.8766 15.3514 45.6096C14.23 47.7504 15.9503 50.8342 17.403 50.7068C18.3077 50.6303 19.3909 54.3003 17.747 55.1668C17.747 55.1668 16.6766 56.2754 16.7658 57.5879C16.855 58.9004 20.2191 56.4793 20.7543 54.7463C21.2895 53.0132 22.1688 48.8081 20.4103 48.2729C18.6518 47.7377 19.0086 46.8712 19.5055 45.4822C20.0025 44.0933 20.3083 43.2395 20.3083 43.2395C20.3083 43.2395 21.7865 43.9786 21.6208 45.1254C21.4552 46.2723 21.9522 48.2856 22.8951 48.617C23.8381 48.9483 24.539 49.6491 24.539 49.6491" stroke="#E3F2C4" style="stroke:#E3F2C4;stroke:color(display-p3 0.8902 0.9490 0.7686);stroke-opacity:1;" stroke-width="1.27428" stroke-miterlimit="10"/>
<path d="M24.8448 41.7485C25.329 43.0355 27.4188 43.7491 29.5724 44.004C31.7259 44.2589 32.6816 49.0502 30.2095 47.6739C27.7374 46.2977 25.9279 49.0884 24.6154 49.9931C23.3029 50.8979 25.4437 54.9756 26.718 55.5745C27.9923 56.1734 28.7441 59.2444 28.7441 59.2444C28.7441 59.2444 30.1713 57.0144 28.1452 54.9374C26.1191 52.8603 27.4698 48.8718 30.9104 50.9489C34.351 53.0259 37.1161 51.2802 36.53 46.7565C35.9438 42.2328 29.2538 40.7546 29.2538 40.7546C27.1003 40.041 30.2605 38.7794 30.2605 38.7794C31.2544 38.1678 33.1276 39.3911 33.1276 39.3911L36.0585 34.4341L33.9432 30.8661L35.7017 29.6428C35.7017 29.6428 41.2703 17.2313 34.5294 8.98669" stroke="#E3F2C4" style="stroke:#E3F2C4;stroke:color(display-p3 0.8902 0.9490 0.7686);stroke-opacity:1;" stroke-width="1.27428" stroke-miterlimit="10"/>
<path d="M19.5183 37.2759L19.3144 39.5314C19.3144 39.5314 17.4285 39.7862 16.7658 38.7413C16.1032 37.6964 19.3144 33.1472 19.3144 33.1472H19.7222C19.7222 33.1472 22.9334 37.6964 22.2707 38.7413C21.6081 39.7862 19.7222 39.5314 19.7222 39.5314L19.5183 37.2759Z" stroke="#E3F2C4" style="stroke:#E3F2C4;stroke:color(display-p3 0.8902 0.9490 0.7686);stroke-opacity:1;" stroke-width="1.27428" stroke-miterlimit="10"/>
<path d="M8.50842 26.712C8.50842 26.712 6.30391 27.8843 6.45682 29.9741C6.60974 32.064 6.83911 34.0901 8.15162 34.2557C9.46413 34.4214 15.2239 34.7527 16.6766 32.6629C18.1293 30.573 15.1857 27.2089 13.3125 26.9796C11.4393 26.7502 8.50842 26.6992 8.50842 26.6992V26.712Z" stroke="#E3F2C4" style="stroke:#E3F2C4;stroke:color(display-p3 0.8902 0.9490 0.7686);stroke-opacity:1;" stroke-width="1.27428" stroke-miterlimit="10"/>
<path d="M30.9229 26.712C30.9229 26.712 33.1274 27.8843 32.9745 29.9741C32.8216 32.064 32.5922 34.0901 31.2797 34.2557C29.9672 34.4214 24.2074 34.7527 22.7547 32.6629C21.3021 30.573 24.2456 27.2089 26.1188 26.9796C27.992 26.7502 30.9229 26.6992 30.9229 26.6992V26.712Z" stroke="#E3F2C4" style="stroke:#E3F2C4;stroke:color(display-p3 0.8902 0.9490 0.7686);stroke-opacity:1;" stroke-width="1.27428" stroke-miterlimit="10"/>
<path d="M37.7668 2.89563L32.4658 12.5165C32.4658 12.5165 26.1963 14.6063 19.3916 14.4789" stroke="#E3F2C4" style="stroke:#E3F2C4;stroke:color(display-p3 0.8902 0.9490 0.7686);stroke-opacity:1;" stroke-width="1.27428" stroke-miterlimit="10"/>
<path d="M1.02832 2.89563C1.02832 2.89563 10.8913 7.94179 19.4035 7.86534C27.9157 7.78888 37.7787 2.89563 37.7787 2.89563" stroke="#E3F2C4" style="stroke:#E3F2C4;stroke:color(display-p3 0.8902 0.9490 0.7686);stroke-opacity:1;" stroke-width="1.27428" stroke-miterlimit="10"/>
<path d="M19.3907 14.4789C12.5861 14.6063 6.3166 12.5165 6.3166 12.5165L1.02832 2.89563" stroke="#E3F2C4" style="stroke:#E3F2C4;stroke:color(display-p3 0.8902 0.9490 0.7686);stroke-opacity:1;" stroke-width="1.27428" stroke-miterlimit="10"/>
<path d="M9.01807 6.08149C9.01807 6.08149 11.2098 0.95887 19.3907 0.793213" stroke="#E3F2C4" style="stroke:#E3F2C4;stroke:color(display-p3 0.8902 0.9490 0.7686);stroke-opacity:1;" stroke-width="1.27428" stroke-miterlimit="10"/>
<path d="M29.6486 6.08149C29.6486 6.08149 27.4441 0.95887 19.2632 0.793213" stroke="#E3F2C4" style="stroke:#E3F2C4;stroke:color(display-p3 0.8902 0.9490 0.7686);stroke-opacity:1;" stroke-width="1.27428" stroke-miterlimit="10"/>
<path d="M33.5862 4.57784C33.5862 4.57784 34.3635 1.74893 25.6729 2.37333" stroke="#E3F2C4" style="stroke:#E3F2C4;stroke:color(display-p3 0.8902 0.9490 0.7686);stroke-opacity:1;" stroke-width="1.27428" stroke-miterlimit="10"/>
<path d="M15.4536 11.0384C15.4536 11.1658 16.1672 12.3126 19.2637 12.3126V8.93579" stroke="#E3F2C4" style="stroke:#E3F2C4;stroke:color(display-p3 0.8902 0.9490 0.7686);stroke-opacity:1;" stroke-width="1.27428" stroke-miterlimit="10"/>
<path d="M19.2637 9.80249H17.5562" stroke="#E3F2C4" style="stroke:#E3F2C4;stroke:color(display-p3 0.8902 0.9490 0.7686);stroke-opacity:1;" stroke-width="1.27428" stroke-miterlimit="10"/>
<path d="M23.2017 11.0384C23.2017 11.1658 22.4881 12.3126 19.3916 12.3126V8.93579" stroke="#E3F2C4" style="stroke:#E3F2C4;stroke:color(display-p3 0.8902 0.9490 0.7686);stroke-opacity:1;" stroke-width="1.27428" stroke-miterlimit="10"/>
<path d="M19.3916 9.80249H21.1119" stroke="#E3F2C4" style="stroke:#E3F2C4;stroke:color(display-p3 0.8902 0.9490 0.7686);stroke-opacity:1;" stroke-width="1.27428" stroke-miterlimit="10"/>
</g>
<defs>
<clipPath id="clip0_95_188">
<rect width="38.0629" height="60.6686" fill="white" style="fill:white;fill-opacity:1;" transform="translate(0.468262 0.156006)"/>
</clipPath>
</defs>
</svg>
