<svg width="32" height="233" viewBox="0 0 32 233" fill="none" xmlns="http://www.w3.org/2000/svg">
<path d="M20.5015 230.42C29.141 236.461 27.3084 193.31 22.0723 193.31C16.0508 96.6524 22.3341 75.0769 22.3341 59.1111C22.3341 43.1453 28.9853 32.3727 29.9264 13.3712C30.9736 -7.77267 20.5015 5.6041 19.9779 13.3712C19.4721 20.8734 18.6688 24.5905 17.3598 21.1384C15.6947 16.7474 13.1295 13.3712 6.1022 6.89862C-2.79916 -1.30008 5.05498 16.3917 8.45844 43.5768C11.1812 65.3248 9.59293 152.461 8.45844 193.31C6.364 196.906 2.43696 210.139 4.53139 220.927C6.28138 229.94 10.0293 224.523 15.0036 212.297C22.3341 221.358 11.8619 224.379 20.5015 230.42Z" stroke="#E3F2C4" style="stroke:#E3F2C4;stroke:color(display-p3 0.8902 0.9490 0.7686);stroke-opacity:1;" stroke-width="3"/>
</svg>
