<svg width="32" height="233" viewBox="0 0 32 233" fill="none" xmlns="http://www.w3.org/2000/svg">
<path d="M11.4985 2.57988C2.85897 -3.46118 4.69159 39.6897 9.92768 39.6897C15.9492 136.348 9.6659 157.923 9.6659 173.889C9.6659 189.855 3.01466 200.627 2.07356 219.629C1.02635 240.773 11.4985 227.396 12.0221 219.629C12.5279 212.127 13.3312 208.41 14.6402 211.862C16.3053 216.253 18.8705 219.629 25.8978 226.101C34.7992 234.3 26.945 216.608 23.5416 189.423C20.8188 167.675 22.4071 80.5392 23.5416 39.6897C25.636 36.0938 29.563 22.8607 27.4686 12.0731C25.7186 3.0595 21.9707 8.47724 16.9964 20.7033C9.6659 11.6416 20.1381 8.62094 11.4985 2.57988Z" stroke="#E3F2C4" style="stroke:#E3F2C4;stroke:color(display-p3 0.8902 0.9490 0.7686);stroke-opacity:1;" stroke-width="3"/>
</svg>
