<svg width="59" height="56" viewBox="0 0 59 56" fill="none" xmlns="http://www.w3.org/2000/svg">
<path d="M3.06264 6.52217C-0.926808 8.33827 9.05951 16.1091 10.6781 14.2953C33.6398 31.0381 36.4075 37.4176 39.8928 40.5277C43.3781 43.6378 43.6737 48.0404 47.5308 52.0679C51.8228 56.5494 52.1398 50.3159 50.6061 48.6215C49.1248 46.9849 48.5616 45.9826 49.7199 46.2016C51.1931 46.4801 52.7231 46.2492 56.3084 45.0756C60.8498 43.5891 54.5598 42.8636 47.5732 38.747C41.9839 35.4538 23.4532 17.9296 14.8865 9.5792C14.7489 8.15318 13.0741 4.215 10.0717 2.83913C7.56309 1.68953 7.58722 4.04323 8.7185 8.14802C4.4743 8.92224 7.05208 4.70607 3.06264 6.52217Z" fill="#E3F2C4" style="fill:#E3F2C4;fill:color(display-p3 0.8902 0.9490 0.7686);fill-opacity:1;"/>
<path d="M52.5132 3.61851C50.9013 -0.761694 42.2052 8.43646 43.9724 10.3681C25.1399 31.6789 18.3619 33.622 14.9155 36.7752C11.4691 39.9284 6.89882 39.6023 2.47949 43.0078C-2.43812 46.7973 3.9839 48.0187 5.83724 46.6778C7.62737 45.3828 8.70088 44.945 8.39752 46.1097C8.01164 47.5911 8.14864 49.2042 9.12325 53.0749C10.3578 57.9778 11.5259 51.5863 16.2454 44.9619C20.021 39.6623 39.3665 23.0393 48.5672 15.3902C50.0503 15.4527 54.2323 14.2879 55.854 11.3847C57.2091 8.95901 54.7747 8.6464 50.4566 9.22598C49.9386 4.73211 54.1251 7.99872 52.5132 3.61851Z" fill="#E3F2C4" style="fill:#E3F2C4;fill:color(display-p3 0.8902 0.9490 0.7686);fill-opacity:1;"/>
</svg>
