<svg width="67" height="46" viewBox="0 0 67 46" fill="none" xmlns="http://www.w3.org/2000/svg">
<path d="M0.16966 8.58997C-1.59781 12.6012 11.0271 11.7503 11.0271 9.31929C39.3069 6.52359 45.6194 9.44083 50.2906 9.44083C54.9619 9.44083 58.1137 12.5289 63.6731 12.9658C69.8593 13.4521 65.9455 8.58996 63.6731 8.34686C61.4781 8.11206 60.3906 7.7391 61.4006 7.13133C62.6853 6.35826 63.6731 5.16728 65.5668 1.90459C67.9655 -2.22818 62.7893 1.41838 54.8356 2.99856C48.4727 4.26271 22.9787 3.52529 11.0271 2.99856C9.97505 2.02614 6.10335 0.202875 2.94714 1.17529C0.309986 1.98778 1.89509 3.72788 5.47215 6.03737C2.82092 9.44083 1.93713 4.57874 0.16966 8.58997Z" fill="#E3F2C4" style="fill:#E3F2C4;fill:color(display-p3 0.8902 0.9490 0.7686);fill-opacity:1;"/>
<path d="M66.8303 20.7493C68.5978 16.4295 55.9729 17.3458 55.9729 19.9638C27.6931 22.9746 21.3806 19.8329 16.7094 19.8329C12.0381 19.8329 8.88633 16.5073 3.32694 16.0368C-2.85926 15.5132 1.05447 20.7493 3.32694 21.0111C5.5219 21.2639 6.60944 21.6656 5.59945 22.3201C4.31474 23.1526 3.32695 24.4352 1.43322 27.9489C-0.96553 32.3996 4.21067 28.4725 12.1644 26.7708C18.5273 25.4094 44.0213 26.2035 55.9729 26.7708C57.025 27.818 60.8967 29.7815 64.0529 28.7343C66.69 27.8593 65.1049 25.9854 61.5279 23.4982C64.1791 19.8329 65.0629 25.069 66.8303 20.7493Z" fill="#E3F2C4" style="fill:#E3F2C4;fill:color(display-p3 0.8902 0.9490 0.7686);fill-opacity:1;"/>
<path d="M0.16966 37.41C-1.59781 33.3988 11.0271 34.2497 11.0271 36.6807C39.3069 39.4764 45.6194 36.5592 50.2906 36.5592C54.9619 36.5592 58.1137 33.4711 63.6731 33.0342C69.8593 32.5479 65.9455 37.41 63.6731 37.6531C61.4781 37.8879 60.3906 38.2609 61.4006 38.8687C62.6853 39.6417 63.6731 40.8327 65.5668 44.0954C67.9655 48.2282 62.7893 44.5816 54.8356 43.0014C48.4727 41.7373 22.9787 42.4747 11.0271 43.0014C9.97505 43.9739 6.10335 45.7971 2.94714 44.8247C0.309986 44.0122 1.89509 42.2721 5.47215 39.9626C2.82092 36.5592 1.93713 41.4213 0.16966 37.41Z" fill="#E3F2C4" style="fill:#E3F2C4;fill:color(display-p3 0.8902 0.9490 0.7686);fill-opacity:1;"/>
</svg>
