<svg width="41" height="51" viewBox="0 0 41 51" fill="none" xmlns="http://www.w3.org/2000/svg">
<path d="M20.7119 49.3464H18.4663C17.7267 49.3464 12.2808 47.4101 12.2808 47.4101L12.6574 43.766C12.6574 43.766 10.4252 40.9422 9.37638 40.2968C8.32754 39.6514 6.35089 40.9422 6.35089 40.9422L3.25816 35.7115L5.4903 31.9464L3.63467 30.6556C3.63467 30.6556 -2.28185 17.5586 4.84486 8.87203C11.9581 0.172062 20.7119 1.18056 20.7119 1.18056" stroke="#E3F2C4" style="stroke:#E3F2C4;stroke:color(display-p3 0.8902 0.9490 0.7686);stroke-opacity:1;" stroke-width="1.34466" stroke-miterlimit="10"/>
<path d="M20.7113 49.3465H22.9569C23.6964 49.3465 29.1423 47.4102 29.1423 47.4102L28.7658 43.7661C28.7658 43.7661 30.9979 40.9423 32.0468 40.2969C33.0956 39.6515 35.0723 40.9423 35.0723 40.9423L38.165 35.7116L35.9329 31.9465L37.7885 30.6557C37.7885 30.6557 43.6647 17.5586 36.5514 8.85867C29.4516 0.172151 20.7113 1.18065 20.7113 1.18065H20.644" stroke="#E3F2C4" style="stroke:#E3F2C4;stroke:color(display-p3 0.8902 0.9490 0.7686);stroke-opacity:1;" stroke-width="1.34466" stroke-miterlimit="10"/>
<path d="M20.7119 38.7505L20.4968 41.1306C20.4968 41.1306 18.5067 41.3995 17.8074 40.2969C17.1082 39.1942 20.4968 34.3938 20.4968 34.3938H20.9271C20.9271 34.3938 24.3156 39.1942 23.6164 40.2969C22.9172 41.3995 20.9271 41.1306 20.9271 41.1306L20.7119 38.7505Z" stroke="#E3F2C4" style="stroke:#E3F2C4;stroke:color(display-p3 0.8902 0.9490 0.7686);stroke-opacity:1;" stroke-width="1.34466" stroke-miterlimit="10"/>
<path d="M9.08016 27.5896C9.08016 27.5896 6.75389 28.8267 6.91525 31.032C7.07661 33.2372 7.31865 35.3752 8.70365 35.55C10.0887 35.7248 16.1665 36.0744 17.6994 33.8692C19.2324 31.6639 16.1262 28.114 14.1495 27.872C12.1729 27.63 9.08016 27.5762 9.08016 27.5762V27.5896Z" stroke="#E3F2C4" style="stroke:#E3F2C4;stroke:color(display-p3 0.8902 0.9490 0.7686);stroke-opacity:1;" stroke-width="1.34466" stroke-miterlimit="10"/>
<path d="M32.7329 27.5896C32.7329 27.5896 35.0592 28.8267 34.8978 31.032C34.7365 33.2372 34.4944 35.3752 33.1094 35.55C31.7244 35.7248 25.6466 36.0744 24.1137 33.8692C22.5807 31.6639 25.6869 28.114 27.6636 27.872C29.6402 27.63 32.7329 27.5762 32.7329 27.5762V27.5896Z" stroke="#E3F2C4" style="stroke:#E3F2C4;stroke:color(display-p3 0.8902 0.9490 0.7686);stroke-opacity:1;" stroke-width="1.34466" stroke-miterlimit="10"/>
</svg>
