<svg width="41" height="50" viewBox="0 0 41 50" fill="none" xmlns="http://www.w3.org/2000/svg">
<path d="M20.4584 48.7473H18.2533C17.5271 48.7473 12.1795 46.8459 12.1795 46.8459L12.5492 43.2676C12.5492 43.2676 10.3573 40.4947 9.32739 39.861C8.29748 39.2272 6.35649 40.4947 6.35649 40.4947L3.31956 35.3584L5.51143 31.6613L3.68928 30.3937C3.68928 30.3937 -2.12049 17.533 4.87764 9.00317" stroke="#E3F2C4" style="stroke:#E3F2C4;stroke:color(display-p3 0.8902 0.9490 0.7686);stroke-opacity:1;" stroke-width="1.3204" stroke-miterlimit="10"/>
<path d="M20.4585 48.7471H22.6636C23.3898 48.7471 28.7374 46.8458 28.7374 46.8458L28.3677 43.2675C28.3677 43.2675 30.5596 40.4946 31.5895 39.8608C32.6194 39.2271 34.5604 40.4946 34.5604 40.4946L37.5973 35.3583L35.4054 31.6612L37.2276 30.3936C37.2276 30.3936 42.9977 17.5329 36.0128 8.98987" stroke="#E3F2C4" style="stroke:#E3F2C4;stroke:color(display-p3 0.8902 0.9490 0.7686);stroke-opacity:1;" stroke-width="1.3204" stroke-miterlimit="10"/>
<path d="M20.4586 38.3294L20.2473 40.6665C20.2473 40.6665 18.2931 40.9306 17.6065 39.8478C16.9199 38.7651 20.2473 34.0513 20.2473 34.0513H20.6698C20.6698 34.0513 23.9972 38.7651 23.3106 39.8478C22.624 40.9306 20.6698 40.6665 20.6698 40.6665L20.4586 38.3294Z" stroke="#E3F2C4" style="stroke:#E3F2C4;stroke:color(display-p3 0.8902 0.9490 0.7686);stroke-opacity:1;" stroke-width="1.3204" stroke-miterlimit="10"/>
<path d="M9.03704 27.383C9.03704 27.383 6.75275 28.5978 6.9112 30.7632C7.06965 32.9287 7.30732 35.0281 8.66733 35.1998C10.0273 35.3714 15.9956 35.7147 17.5008 33.5493C19.0061 31.3838 15.9559 27.898 14.015 27.6603C12.074 27.4226 9.03704 27.3698 9.03704 27.3698V27.383Z" stroke="#E3F2C4" style="stroke:#E3F2C4;stroke:color(display-p3 0.8902 0.9490 0.7686);stroke-opacity:1;" stroke-width="1.3204" stroke-miterlimit="10"/>
<path d="M32.2629 27.383C32.2629 27.383 34.5472 28.5978 34.3887 30.7632C34.2303 32.9287 33.9926 35.0281 32.6326 35.1998C31.2726 35.3714 25.3044 35.7147 23.7991 33.5493C22.2938 31.3838 25.344 27.898 27.285 27.6603C29.226 27.4226 32.2629 27.3698 32.2629 27.3698V27.383Z" stroke="#E3F2C4" style="stroke:#E3F2C4;stroke:color(display-p3 0.8902 0.9490 0.7686);stroke-opacity:1;" stroke-width="1.3204" stroke-miterlimit="10"/>
<path d="M20.4586 15.3806C13.4077 15.5126 6.91131 13.3471 6.91131 13.3471L1.43164 3.41772C1.43164 3.41772 1.43164 3.39131 1.43164 3.40451C1.99941 3.695 11.876 8.6201 20.4454 8.54087C29.0148 8.46165 38.9046 3.6818 39.4592 3.40451C39.4592 3.40451 39.4592 3.40451 39.4592 3.41772L33.9927 13.3603C33.9927 13.3603 27.4964 15.5258 20.4454 15.3938" stroke="#E3F2C4" style="stroke:#E3F2C4;stroke:color(display-p3 0.8902 0.9490 0.7686);stroke-opacity:1;" stroke-width="1.3204" stroke-miterlimit="10"/>
<path d="M9.69678 6.67913C9.69678 6.67913 11.9811 1.37112 20.458 1.19946" stroke="#E3F2C4" style="stroke:#E3F2C4;stroke:color(display-p3 0.8902 0.9490 0.7686);stroke-opacity:1;" stroke-width="1.3204" stroke-miterlimit="10"/>
<path d="M31.0743 6.67913C31.0743 6.67913 28.79 1.37112 20.313 1.19946" stroke="#E3F2C4" style="stroke:#E3F2C4;stroke:color(display-p3 0.8902 0.9490 0.7686);stroke-opacity:1;" stroke-width="1.3204" stroke-miterlimit="10"/>
<path d="M35.1675 5.12115C35.1675 5.12115 35.9729 2.18986 26.9678 2.83685" stroke="#E3F2C4" style="stroke:#E3F2C4;stroke:color(display-p3 0.8902 0.9490 0.7686);stroke-opacity:1;" stroke-width="1.3204" stroke-miterlimit="10"/>
<path d="M16.3784 11.8152C16.3784 11.9472 17.1178 13.1356 20.3264 13.1356V9.63654" stroke="#E3F2C4" style="stroke:#E3F2C4;stroke:color(display-p3 0.8902 0.9490 0.7686);stroke-opacity:1;" stroke-width="1.3204" stroke-miterlimit="10"/>
<path d="M20.3133 10.5347H18.5439" stroke="#E3F2C4" style="stroke:#E3F2C4;stroke:color(display-p3 0.8902 0.9490 0.7686);stroke-opacity:1;" stroke-width="1.3204" stroke-miterlimit="10"/>
<path d="M24.3928 11.8152C24.3928 11.9472 23.6534 13.1356 20.4448 13.1356V9.63654" stroke="#E3F2C4" style="stroke:#E3F2C4;stroke:color(display-p3 0.8902 0.9490 0.7686);stroke-opacity:1;" stroke-width="1.3204" stroke-miterlimit="10"/>
<path d="M20.4575 10.5347H22.2269" stroke="#E3F2C4" style="stroke:#E3F2C4;stroke:color(display-p3 0.8902 0.9490 0.7686);stroke-opacity:1;" stroke-width="1.3204" stroke-miterlimit="10"/>
</svg>
