<svg width="1305" height="162" viewBox="0 0 1305 162" fill="none" xmlns="http://www.w3.org/2000/svg">
<path d="M0.205078 90.1373H1.55337C30.4701 90.1373 57.3613 74.6934 74.6778 49.1977C86.0109 32.5084 104.092 21.7107 124.471 21.7107C130.84 21.7107 136.985 22.7645 142.769 24.7283C131.89 30.134 124.353 42.2387 124.471 56.2593C124.633 75.1108 138.905 90.1373 156.022 90.1373H186.604" stroke="#E3F2C4" style="stroke:#E3F2C4;stroke:color(display-p3 0.8902 0.9490 0.7686);stroke-opacity:1;" stroke-width="15" stroke-miterlimit="10"/>
<path d="M186.604 90.1373H187.953C216.869 90.1373 243.76 74.6934 261.077 49.1977C272.41 32.5153 290.491 21.7107 310.864 21.7107C317.233 21.7107 323.378 22.7645 329.162 24.7283C318.283 30.134 310.746 42.2387 310.864 56.2593C311.026 75.1108 325.298 90.1373 342.415 90.1373H372.997" stroke="#E3F2C4" style="stroke:#E3F2C4;stroke:color(display-p3 0.8902 0.9490 0.7686);stroke-opacity:1;" stroke-width="15" stroke-miterlimit="10"/>
<path d="M373.004 90.1373H374.352C403.269 90.1373 430.16 74.6934 447.476 49.1977C458.809 32.5153 476.89 21.7107 497.264 21.7107C503.632 21.7107 509.777 22.7645 515.562 24.7283C504.682 30.134 497.146 42.2387 497.264 56.2593C497.425 75.1108 511.697 90.1373 528.815 90.1373H559.397" stroke="#E3F2C4" style="stroke:#E3F2C4;stroke:color(display-p3 0.8902 0.9490 0.7686);stroke-opacity:1;" stroke-width="15" stroke-miterlimit="10"/>
<path d="M559.403 90.1373H560.751C589.668 90.1373 616.559 74.6934 633.876 49.1977C645.209 32.5153 663.289 21.7107 683.663 21.7107C690.031 21.7107 696.176 22.7645 701.961 24.7283C691.081 30.134 683.545 42.2387 683.663 56.2593C683.824 75.1108 698.096 90.1373 715.214 90.1373H745.796" stroke="#E3F2C4" style="stroke:#E3F2C4;stroke:color(display-p3 0.8902 0.9490 0.7686);stroke-opacity:1;" stroke-width="15" stroke-miterlimit="10"/>
<path d="M745.802 90.1373H747.151C776.067 90.1373 802.958 74.6934 820.275 49.1977C831.608 32.5153 849.689 21.7107 870.062 21.7107C876.431 21.7107 882.576 22.7645 888.36 24.7283C877.481 30.134 869.944 42.2387 870.062 56.2593C870.224 75.1108 884.496 90.1373 901.613 90.1373H932.195" stroke="#E3F2C4" style="stroke:#E3F2C4;stroke:color(display-p3 0.8902 0.9490 0.7686);stroke-opacity:1;" stroke-width="15" stroke-miterlimit="10"/>
<path d="M932.201 90.1373H933.55C962.466 90.1373 989.358 74.6934 1006.67 49.1977C1018.01 32.5153 1036.09 21.7107 1056.46 21.7107C1062.83 21.7107 1068.98 22.7645 1074.76 24.7283C1063.88 30.134 1056.34 42.2387 1056.46 56.2593C1056.62 75.1108 1070.89 90.1373 1088.01 90.1373H1118.59" stroke="#E3F2C4" style="stroke:#E3F2C4;stroke:color(display-p3 0.8902 0.9490 0.7686);stroke-opacity:1;" stroke-width="15" stroke-miterlimit="10"/>
<path d="M1118.6 90.1373H1119.95C1148.87 90.1373 1175.76 74.6934 1193.07 49.1977C1204.41 32.5153 1222.49 21.7107 1242.86 21.7107C1249.23 21.7107 1255.37 22.7645 1261.16 24.7283C1250.28 30.134 1242.74 42.2387 1242.86 56.2593C1243.02 75.1108 1257.29 90.1373 1274.41 90.1373H1304.99" stroke="#E3F2C4" style="stroke:#E3F2C4;stroke:color(display-p3 0.8902 0.9490 0.7686);stroke-opacity:1;" stroke-width="15" stroke-miterlimit="10"/>
</svg>
